<svg id="svg" xmlns="http://www.w3.org/2000/svg" xmlns:xlink="http://www.w3.org/1999/xlink" width="400" height="120.47632878303804" viewBox="0, 0, 400,120.47632878303804"><g id="svgg"><path id="path0" d="M133.604 8.187 L 133.604 16.381 157.124 16.381 C 182.381 16.381,181.670 16.366,184.400 16.962 C 194.393 19.142,200.902 27.751,200.913 38.803 C 200.924 49.585,194.699 57.975,184.839 60.467 C 181.928 61.203,183.660 61.157,157.450 61.196 L 133.604 61.232 133.604 90.796 L 133.604 120.360 141.737 120.360 L 149.869 120.360 149.869 98.983 L 149.869 77.607 160.238 77.598 C 181.398 77.579,183.962 77.475,188.674 76.442 C 209.268 71.926,221.403 52.207,217.121 30.218 C 214.106 14.737,202.809 3.631,187.162 0.766 C 183.147 0.031,184.714 0.071,157.973 0.030 L 133.604 -0.007 133.604 8.187 M226.430 8.191 L 226.430 16.381 292.757 16.381 C 352.677 16.381,359.223 16.399,360.518 16.566 C 371.609 17.993,379.142 26.491,379.518 37.999 C 379.879 49.053,373.495 57.899,363.304 60.464 C 360.367 61.204,362.120 61.157,335.899 61.196 L 312.053 61.232 312.053 90.796 L 312.053 120.360 320.302 120.360 L 328.551 120.360 328.551 98.983 L 328.551 77.606 342.751 77.635 L 356.951 77.665 358.464 80.343 C 359.296 81.816,364.734 91.423,370.549 101.691 L 381.120 120.360 390.512 120.360 L 399.903 120.360 399.676 119.983 C 399.551 119.775,398.037 117.096,396.312 114.028 C 394.587 110.961,388.877 100.821,383.622 91.495 C 378.366 82.169,374.043 74.477,374.014 74.401 C 373.983 74.319,374.309 74.105,374.811 73.877 C 388.434 67.694,396.356 54.763,396.334 38.745 C 396.305 17.133,381.880 1.636,360.383 0.121 C 359.267 0.042,336.407 0.002,292.565 0.001 L 226.430 0.000 226.430 8.191 M0.000 60.296 L 0.000 120.476 8.132 120.476 L 16.265 120.476 16.294 81.909 L 16.323 43.341 37.033 68.205 L 57.744 93.069 58.495 93.035 L 59.247 93.000 71.244 78.646 C 77.843 70.751,87.188 59.573,92.013 53.806 L 100.784 43.320 100.813 81.898 L 100.843 120.476 108.975 120.476 L 117.107 120.476 117.107 60.296 L 117.107 0.116 116.265 0.124 L 115.423 0.132 102.353 15.648 C 75.844 47.116,58.680 67.438,58.583 67.470 C 58.528 67.488,45.654 52.341,29.973 33.810 L 1.464 0.116 0.732 0.116 L 0.000 0.116 0.000 60.296 M261.865 80.046 L 261.865 120.360 270.055 120.360 L 278.246 120.360 278.246 80.046 L 278.246 39.733 270.055 39.733 L 261.865 39.733 261.865 80.046 " stroke="none" fill="#000000" fill-rule="evenodd"></path></g></svg>